<svg width="48" height="48" xmlns="http://www.w3.org/2000/svg"><g fill="none" fill-rule="evenodd"><path fill="#02B6FD" d="M0 0h48v48H0z"/><path d="M23.88 9.188c5.006 0 9.62 2.522 12.342 6.746.205.317.539.801.567 1.395.02.446-.14.855-.498 1.112l-13.285 8.69a.916.916 0 01-.508.153.934.934 0 01-.786-.43l-.646-1.003a2.134 2.134 0 01-.296-1.609c.118-.56.444-1.039.92-1.35l9.013-5.897a.566.566 0 00.273-.508c-.01-.216-.17-.387-.217-.427a10.407 10.407 0 00-6.879-2.593c-2.017 0-3.982.588-5.682 1.7a10.476 10.476 0 00-4.532 6.644 10.535 10.535 0 001.458 7.928 10.408 10.408 0 008.776 4.796 10.37 10.37 0 005.632-1.666.444.444 0 01.092-.063l.046-.028a2.115 2.115 0 012.719.486c.054.067.101.13.137.185l.611.976c.005.006.013.024.029.05l.012.019a.19.19 0 01.019.046l.01.028a.939.939 0 01-.272 1.106c-.032.027-.05.043-.083.065-.257.2-.52.39-.781.568l-.017.013c-.033.028-.09.07-.149.107-.064.04-.13.08-.215.124a14.503 14.503 0 01-7.789 2.261c-5.004 0-9.616-2.52-12.337-6.744a14.804 14.804 0 01-2.05-11.146c.816-3.87 3.079-7.188 6.373-9.344a14.564 14.564 0 017.993-2.39zm12.888 14.35c.361 0 .696.184.895.49l.753 1.17c.357.554.479 1.216.342 1.86a2.455 2.455 0 01-1.062 1.559l-1.162.759a1.049 1.049 0 01-.58.174c-.363 0-.698-.184-.896-.489l-1.51-2.341a1.08 1.08 0 01-.146-.81c.06-.28.221-.521.46-.677l2.325-1.52a1.05 1.05 0 01.58-.175z" fill="#FFF"/></g></svg>